<?xml version="1.0" encoding="utf-8"?>
<!-- Generator: Adobe Illustrator 24.0.2, SVG Export Plug-In . SVG Version: 6.00 Build 0)  -->
<svg version="1.1" xmlns="http://www.w3.org/2000/svg" xmlns:xlink="http://www.w3.org/1999/xlink" x="0px" y="0px"
	 viewBox="0 0 17 17" style="enable-background:new 0 0 17 17;" xml:space="preserve">
<style type="text/css">
	.st0{fill:#FFFFFF;}
	.st1{fill:#FF5B14;}
	.st2{fill:#FF5B14;stroke:#FF5B14;stroke-width:0.35;stroke-miterlimit:10;}
	.st3{font-family:'ArialMT';}
	.st4{font-size:9px;}
</style>
<g id="图层_2">
	<path class="st0" d="M15.2,16H1.8c-1,0-1.8-0.8-1.8-1.8V4.5c0-1,0.8-1.8,1.8-1.8h13.5c1,0,1.8,0.8,1.8,1.8v9.7
		C17,15.2,16.2,16,15.2,16z"/>
	<path class="st1" d="M14.9,15.4H2c-0.7,0-1.3-0.6-1.3-1.3V4.7C0.7,4,1.2,3.4,2,3.4h13c0.7,0,1.3,0.6,1.3,1.3v9.4
		C16.3,14.8,15.7,15.4,14.9,15.4z"/>
	<path class="st0" d="M13.9,13.9H3c-0.4,0-0.7-0.3-0.7-0.7V5.9c0-0.4,0.3-0.7,0.7-0.7h11c0.4,0,0.7,0.3,0.7,0.7v7.4
		C14.6,13.6,14.3,13.9,13.9,13.9z"/>
</g>
<g id="图层_1">
	<text transform="matrix(0.99 0 0 0.95 2.5745 11.8817)" class="st2 st3 st4">api</text>
</g>
</svg>
