<?xml version="1.0" encoding="utf-8"?>
<!-- Generator: Adobe Illustrator 24.0.2, SVG Export Plug-In . SVG Version: 6.00 Build 0)  -->
<svg version="1.1" id="图层_1" xmlns="http://www.w3.org/2000/svg" xmlns:xlink="http://www.w3.org/1999/xlink" x="0px" y="0px"
	 viewBox="0 0 13 13" style="enable-background:new 0 0 13 13;" xml:space="preserve">
<style type="text/css">
	.st0{display:none;fill:none;}
	.st1{fill:#FF5B14;stroke:#FF5B14;stroke-width:0.5;stroke-miterlimit:10;}
</style>
<path class="st0" d="M13,7h-1c0-2.76-2.24-5-5-5S2,4.24,2,7H1c0-3.31,2.69-6,6-6S13,3.69,13,7z"/>
<line class="st0" x1="12" y1="7" x2="2" y2="7"/>
<polygon class="st1" points="11.5,7.94 8.46,8.12 12.34,10.87 "/>
<path class="st1" d="M10.33,9.09c-0.53,1.3-1.97,2.25-3.67,2.25c-2.14,0-3.88-1.5-3.88-3.34H2c0,2.21,2.09,4,4.66,4
	c1.98,0,3.67-1.06,4.34-2.56L10.33,9.09z"/>
<path class="st0" d="M12,8c0,0.63-0.14,1.24-0.4,1.8l-0.87-0.44C10.9,8.93,11,8.48,11,8H12z"/>
<line class="st0" x1="12" y1="10" x2="11.6" y2="9.8"/>
<line class="st0" x1="10.73" y1="9.36" x2="10" y2="9"/>
<polygon class="st1" points="1.63,5.86 4.66,5.69 0.79,2.94 "/>
<path class="st1" d="M2.8,4.86c0.53-1.37,1.97-2.36,3.67-2.36c2.14,0,3.88,1.57,3.88,3.49h0.78c0-2.31-2.09-4.19-4.66-4.19
	c-1.98,0-3.67,1.11-4.34,2.68L2.8,4.86z"/>
</svg>
