<?xml version="1.0" encoding="utf-8"?>
<!-- Generator: Adobe Illustrator 24.0.2, SVG Export Plug-In . SVG Version: 6.00 Build 0)  -->
<svg version="1.1" id="图层_1" xmlns="http://www.w3.org/2000/svg" xmlns:xlink="http://www.w3.org/1999/xlink" x="0px" y="0px"
	 viewBox="0 0 17 17" style="enable-background:new 0 0 17 17;" xml:space="preserve">
<style type="text/css">
	.st0{fill:#FF5B14;}
	.st1{fill:#FFFFFF;}
	.st2{font-family:'SimHei';}
	.st3{font-size:5.612px;}
	.st4{fill:none;stroke:#FF5B14;stroke-width:0.3;stroke-miterlimit:10;}
</style>
<g>
	<path class="st0" d="M0.9,13.8c-0.4,0-0.6-0.3-0.6-0.6V2.9c0-0.4,0.3-0.7,0.6-0.7h15.2c0.4,0,0.6,0.3,0.6,0.7v10.2
		c0,0.4-0.3,0.6-0.6,0.6H0.9z"/>
	<path class="st1" d="M16.1,2.5c0.2,0,0.4,0.2,0.4,0.4v10.2c0,0.2-0.2,0.4-0.4,0.4H0.9c-0.2,0-0.4-0.2-0.4-0.4V2.9
		c0-0.2,0.2-0.4,0.4-0.4H16.1 M16.1,2H0.9C0.4,2,0,2.4,0,2.9v10.2C0,13.6,0.4,14,0.9,14h15.2c0.5,0,0.9-0.4,0.9-0.9V2.9
		C17,2.4,16.6,2,16.1,2L16.1,2z"/>
</g>
<g>
	<path class="st1" d="M14.2,12H2.8C2.3,12,2,11.7,2,11.2V4.8C2,4.3,2.3,4,2.8,4h11.5C14.7,4,15,4.3,15,4.8v6.5
		C15,11.7,14.7,12,14.2,12z"/>
</g>
<text transform="matrix(0.7895 0 0 1 2.9868 10.2305)" class="st0 st2 st3">闻 歌</text>
<text transform="matrix(0.7895 0 0 1 2.9868 10.2305)" class="st4 st2 st3">闻 歌</text>
</svg>
